<svg xmlns="http://www.w3.org/2000/svg" xmlns:xlink="http://www.w3.org/1999/xlink" width="50" zoomAndPan="magnify" viewBox="0 0 37.5 217.499993" height="290" preserveAspectRatio="xMidYMid meet" version="1.0"><defs><clipPath id="10e0d35bfd"><path d="M 0 1.183594 L 37.007812 1.183594 L 37.007812 146.320312 L 0 146.320312 Z M 0 1.183594 " clip-rule="nonzero"/></clipPath><clipPath id="126a5f1a15"><path d="M 19.574219 2.859375 L 19.707031 27.296875 L 13.960938 29.160156 C 13.597656 29.277344 13.351562 29.609375 13.351562 29.996094 L 13.589844 30.71875 L 26.132812 34.910156 L 1.820312 39.890625 C 1.414062 39.976562 1.113281 40.332031 1.113281 40.753906 L 1.113281 40.761719 L 1.414062 41.542969 L 32.132812 47.472656 L 20.359375 50.554688 C 19.976562 50.65625 19.699219 51.003906 19.699219 51.40625 L 19.699219 56.566406 L 15.308594 58.734375 C 15.011719 58.882812 14.820312 59.1875 14.820312 59.515625 L 14.820312 59.523438 L 15.003906 60.15625 L 19.707031 62.59375 L 19.707031 69.800781 L 14.582031 71.261719 C 14.210938 71.371094 13.949219 71.707031 13.941406 72.101562 L 13.941406 72.117188 L 14.1875 72.84375 L 29.261719 77.597656 L 20.316406 80.457031 C 19.953125 80.574219 19.707031 80.917969 19.707031 81.292969 L 19.707031 87.570312 L 14.742188 89.46875 C 14.40625 89.601562 14.179688 89.921875 14.171875 90.285156 L 14.171875 90.300781 L 14.382812 90.976562 L 19.699219 93.183594 L 19.699219 96.828125 L 0.757812 99.601562 C 0.328125 99.667969 0.0078125 100.023438 0 100.453125 L 0.296875 101.261719 L 28.351562 106.488281 L 13.269531 109.015625 C 12.878906 109.082031 12.578125 109.402344 12.535156 109.800781 L 12.730469 110.574219 L 19.710938 113.199219 L 19.710938 144.84375 L 21.472656 146.183594 L 21.472656 112.589844 C 21.472656 112.21875 21.25 111.890625 20.90625 111.757812 L 16.792969 110.207031 L 33.566406 107.398438 C 33.988281 107.324219 34.300781 106.960938 34.300781 106.539062 L 34.300781 106.53125 L 33.996094 105.746094 L 6.261719 100.578125 L 20.71875 98.46875 C 21.152344 98.402344 21.472656 98.03125 21.472656 97.59375 L 21.472656 92.59375 C 21.472656 92.234375 21.261719 91.914062 20.929688 91.777344 L 17.441406 90.328125 L 20.90625 89.003906 C 21.25 88.871094 21.472656 88.546875 21.472656 88.179688 L 21.472656 81.941406 L 32.453125 78.433594 C 32.816406 78.316406 33.0625 77.976562 33.0625 77.597656 L 32.816406 76.875 L 17.894531 72.171875 L 20.832031 71.335938 C 21.210938 71.226562 21.472656 70.886719 21.472656 70.484375 L 21.472656 62.054688 C 21.472656 61.726562 21.292969 61.421875 21 61.269531 L 17.667969 59.542969 L 20.988281 57.90625 C 21.285156 57.761719 21.472656 57.445312 21.472656 57.113281 L 21.472656 52.089844 L 36.347656 48.203125 C 36.738281 48.101562 37.007812 47.75 37.007812 47.351562 L 37.007812 47.328125 L 36.695312 46.558594 L 6.523438 40.734375 L 29.714844 35.972656 C 30.109375 35.894531 30.390625 35.558594 30.421875 35.164062 L 30.195312 34.398438 L 17.0625 30.003906 L 20.871094 28.773438 C 21.234375 28.65625 21.480469 28.316406 21.480469 27.9375 L 21.480469 1.183594 " clip-rule="nonzero"/></clipPath><clipPath id="962b5a7ae5"><path d="M 0 118.378906 L 37.007812 118.378906 L 37.007812 215.824219 L 0 215.824219 Z M 0 118.378906 " clip-rule="nonzero"/></clipPath><clipPath id="2f5d57cdbe"><path d="M 19.574219 120.054688 L 19.707031 144.492188 L 13.960938 146.355469 C 13.597656 146.46875 13.351562 146.804688 13.351562 147.191406 L 13.589844 147.910156 L 26.132812 152.105469 L 1.820312 157.082031 C 1.414062 157.171875 1.113281 157.527344 1.113281 157.949219 L 1.113281 157.957031 L 1.414062 158.734375 L 32.132812 164.667969 L 20.359375 167.75 C 19.976562 167.851562 19.699219 168.199219 19.699219 168.601562 L 19.699219 173.761719 L 15.308594 175.929688 C 15.011719 176.074219 14.820312 176.382812 14.820312 176.710938 L 14.820312 176.714844 L 15.003906 177.351562 L 19.707031 179.789062 L 19.707031 186.996094 L 14.582031 188.457031 C 14.210938 188.566406 13.949219 188.902344 13.941406 189.296875 L 13.941406 189.308594 L 14.1875 190.039062 L 29.261719 194.792969 L 20.316406 197.652344 C 19.953125 197.769531 19.707031 198.109375 19.707031 198.488281 L 19.707031 204.765625 L 14.742188 206.664062 C 14.40625 206.796875 14.179688 207.117188 14.171875 207.480469 L 14.171875 207.492188 L 14.382812 208.171875 L 19.699219 210.375 L 19.699219 214.023438 L 0.757812 216.796875 C 0.328125 216.863281 0.0078125 217.21875 0 217.648438 L 0.296875 218.457031 L 28.351562 223.683594 L 13.269531 226.210938 C 12.878906 226.273438 12.578125 226.59375 12.535156 226.996094 L 12.730469 227.765625 L 19.710938 230.394531 L 19.710938 262.039062 L 21.472656 263.378906 L 21.472656 229.785156 C 21.472656 229.414062 21.25 229.085938 20.90625 228.953125 L 16.792969 227.402344 L 33.566406 224.59375 C 33.988281 224.519531 34.300781 224.15625 34.300781 223.734375 L 34.300781 223.726562 L 33.996094 222.941406 L 6.261719 217.773438 L 20.71875 215.660156 C 21.152344 215.597656 21.472656 215.226562 21.472656 214.789062 L 21.472656 209.785156 C 21.472656 209.429688 21.261719 209.109375 20.929688 208.972656 L 17.441406 207.523438 L 20.90625 206.199219 C 21.25 206.066406 21.472656 205.738281 21.472656 205.375 L 21.472656 199.136719 L 32.453125 195.628906 C 32.816406 195.511719 33.0625 195.167969 33.0625 194.792969 L 32.816406 194.070312 L 17.894531 189.367188 L 20.832031 188.53125 C 21.210938 188.421875 21.472656 188.078125 21.472656 187.679688 L 21.472656 179.25 C 21.472656 178.921875 21.292969 178.617188 21 178.464844 L 17.667969 176.738281 L 20.988281 175.101562 C 21.285156 174.953125 21.472656 174.640625 21.472656 174.308594 L 21.472656 169.285156 L 36.347656 165.398438 C 36.738281 165.296875 37.007812 164.945312 37.007812 164.546875 L 37.007812 164.523438 L 36.695312 163.75 L 6.523438 157.929688 L 29.714844 153.167969 C 30.109375 153.085938 30.390625 152.753906 30.421875 152.359375 L 30.195312 151.59375 L 17.0625 147.199219 L 20.871094 145.96875 C 21.234375 145.851562 21.480469 145.507812 21.480469 145.128906 L 21.480469 118.378906 " clip-rule="nonzero"/></clipPath></defs><g clip-path="url(#10e0d35bfd)"><g clip-path="url(#126a5f1a15)"><path fill="#262626" d="M 0 1.183594 L 37.007812 1.183594 L 37.007812 146.175781 L 0 146.175781 Z M 0 1.183594 " fill-opacity="1" fill-rule="nonzero"/></g></g><g clip-path="url(#962b5a7ae5)"><g clip-path="url(#2f5d57cdbe)"><path fill="#262626" d="M 0 118.378906 L 37.007812 118.378906 L 37.007812 263.371094 L 0 263.371094 Z M 0 118.378906 " fill-opacity="1" fill-rule="nonzero"/></g></g></svg>