<svg xmlns="http://www.w3.org/2000/svg" xmlns:xlink="http://www.w3.org/1999/xlink" width="112" zoomAndPan="magnify" viewBox="0 0 84 83.999999" height="112" preserveAspectRatio="xMidYMid meet" version="1.0"><path fill="#222222" d="M 42.109375 2.269531 L 55.050781 28.503906 L 84 32.710938 L 63.046875 53.144531 L 68.007812 81.976562 L 42.109375 68.367188 L 16.191406 81.976562 L 21.136719 53.144531 L 0.199219 32.710938 L 29.152344 28.503906 Z M 42.109375 2.269531 " fill-opacity="1" fill-rule="nonzero"/><path fill="#222222" d="M 41.90625 2.015625 L 54.867188 28.25 L 83.816406 32.457031 L 62.863281 52.894531 L 67.808594 81.726562 L 41.90625 68.113281 L 16.007812 81.726562 L 20.953125 52.894531 L 0 32.457031 L 28.949219 28.25 Z M 41.90625 2.015625 " fill-opacity="1" fill-rule="nonzero"/><path fill="#222222" d="M 41.90625 2.015625 L 54.867188 28.25 L 83.816406 32.457031 L 62.863281 52.894531 L 67.808594 81.726562 L 41.90625 68.113281 L 16.007812 81.726562 L 20.953125 52.894531 L 0 32.457031 L 28.949219 28.25 Z M 41.90625 2.015625 " fill-opacity="1" fill-rule="nonzero"/><path fill="#222222" d="M 41.90625 2.015625 L 54.867188 28.25 L 83.816406 32.457031 L 62.863281 52.894531 L 67.808594 81.726562 L 41.90625 68.113281 L 16.007812 81.726562 L 20.953125 52.894531 L 0 32.457031 L 28.949219 28.25 Z M 41.90625 2.015625 " fill-opacity="1" fill-rule="nonzero"/></svg>